<?xml version="1.0" encoding="UTF-8" standalone="no"?>
<!-- Generator: Adobe Illustrator 19.2.0, SVG Export Plug-In . SVG Version: 6.00 Build 0)  -->

<svg
   xmlns:dc="http://purl.org/dc/elements/1.1/"
   xmlns:cc="http://creativecommons.org/ns#"
   xmlns:rdf="http://www.w3.org/1999/02/22-rdf-syntax-ns#"
   xmlns:svg="http://www.w3.org/2000/svg"
   xmlns="http://www.w3.org/2000/svg"
   xmlns:sodipodi="http://sodipodi.sourceforge.net/DTD/sodipodi-0.dtd"
   xmlns:inkscape="http://www.inkscape.org/namespaces/inkscape"
   version="1.1"
   id="Layer_1"
   x="0px"
   y="0px"
   viewBox="0 0 960 960"
   style="enable-background:new 0 0 960 960;"
   xml:space="preserve"
   sodipodi:docname="panda-camera.svg"
   inkscape:version="0.92.4 (5da689c313, 2019-01-14)"><metadata
   id="metadata30"><rdf:RDF><cc:Work
       rdf:about=""><dc:format>image/svg+xml</dc:format><dc:type
         rdf:resource="http://purl.org/dc/dcmitype/StillImage" /></cc:Work></rdf:RDF></metadata><defs
   id="defs28" /><sodipodi:namedview
   pagecolor="#ffffff"
   bordercolor="#666666"
   borderopacity="1"
   objecttolerance="10"
   gridtolerance="10"
   guidetolerance="10"
   inkscape:pageopacity="0"
   inkscape:pageshadow="2"
   inkscape:window-width="1366"
   inkscape:window-height="728"
   id="namedview26"
   showgrid="false"
   inkscape:zoom="0.24583333"
   inkscape:cx="-254.23729"
   inkscape:cy="480"
   inkscape:window-x="0"
   inkscape:window-y="0"
   inkscape:window-maximized="1"
   inkscape:current-layer="Layer_1" />
<style
   type="text/css"
   id="style2">
	.st0{fill:#333333;}
	.st1{fill:#0F0F0F;}
	.st2{fill:#AAAAAA;}
	.st3{stroke:#FFFFFF;stroke-width:29.8029;stroke-miterlimit:10;}
	.st4{fill:#FFFFFF;}
	.st5{fill:#CC333F;}
</style>
<g
   id="Layer_1_1_"
   transform="matrix(1.4909748,0,0,1.4909748,-231.5757,-227.65563)">
	<g
   id="g22">
		<path
   d="m 744.8,338.3 h -81.3 v -41 c 0,-7.1 5.7,-12.8 12.8,-12.8 h 55.8 c 7.1,0 12.8,5.7 12.8,12.8 z"
   id="path4"
   inkscape:connector-curvature="0" />
		<path
   class="st0"
   d="M 761,675.5 H 199 c -14.1,0 -25.5,-11.4 -25.5,-25.5 V 338.8 c 0,-14.1 11.4,-25.5 25.5,-25.5 h 562 c 14.1,0 25.5,11.4 25.5,25.5 V 650 c 0.1,14.1 -11.4,25.5 -25.5,25.5 z"
   id="path6"
   inkscape:connector-curvature="0"
   style="fill:#333333" />
		<path
   class="st1"
   d="M 761,632.9 H 199 c -14.1,0 -25.5,-11.4 -25.5,-25.5 V 650 c 0,14.1 11.4,25.5 25.5,25.5 h 562 c 14.1,0 25.5,-11.4 25.5,-25.5 v -42.6 c 0.1,14.1 -11.4,25.5 -25.5,25.5 z"
   id="path8"
   inkscape:connector-curvature="0"
   style="fill:#0f0f0f" />
		<rect
   x="173.39999"
   y="398.70001"
   class="st2"
   width="613.09998"
   height="202.10001"
   id="rect10"
   style="fill:#aaaaaa" />
		<circle
   class="st3"
   cx="480"
   cy="495.29999"
   r="110.2"
   id="circle12"
   style="stroke:#ffffff;stroke-width:29.80290031;stroke-miterlimit:10" />
		<circle
   class="st0"
   cx="480"
   cy="495.29999"
   r="63"
   id="circle14"
   style="fill:#333333" />
		<circle
   class="st4"
   cx="440.60001"
   cy="455.89999"
   r="23.6"
   id="circle16"
   style="fill:#ffffff" />
		<circle
   class="st5"
   cx="234.3"
   cy="356.5"
   r="18.4"
   id="circle18"
   style="fill:#cc333f" />
		<rect
   x="675.5"
   y="342.79999"
   class="st2"
   width="69.400002"
   height="27.6"
   id="rect20"
   style="fill:#aaaaaa" />
	</g>
</g>
</svg>